<svg width="34" height="34" viewBox="0 0 34 34" fill="none" xmlns="http://www.w3.org/2000/svg">
<g id="Heart">
<circle id="Ellipse 1" cx="17" cy="17" r="17" fill="white"/>
<path id="Vector" d="M20.9688 10C19.3992 10 18.0063 10.6195 17.0625 11.6844C16.1187 10.6195 14.7258 10 13.1562 10C11.7892 10.0017 10.4787 10.5454 9.51206 11.5121C8.54543 12.4787 8.00165 13.7892 8 15.1562C8 20.8078 16.2664 25.3234 16.618 25.5133C16.7546 25.5869 16.9073 25.6254 17.0625 25.6254C17.2177 25.6254 17.3704 25.5869 17.507 25.5133C17.8586 25.3234 26.125 20.8078 26.125 15.1562C26.1233 13.7892 25.5796 12.4787 24.6129 11.5121C23.6463 10.5454 22.3358 10.0017 20.9688 10ZM20.5398 21.1219C19.4518 22.0452 18.2886 22.8762 17.0625 23.6063C15.8364 22.8762 14.6732 22.0452 13.5852 21.1219C11.8922 19.6695 9.875 17.4547 9.875 15.1562C9.875 14.286 10.2207 13.4514 10.8361 12.8361C11.4514 12.2207 12.286 11.875 13.1562 11.875C14.5469 11.875 15.7109 12.6094 16.1945 13.7922C16.2649 13.9646 16.3851 14.1122 16.5397 14.216C16.6942 14.3199 16.8763 14.3754 17.0625 14.3754C17.2487 14.3754 17.4308 14.3199 17.5853 14.216C17.7399 14.1122 17.8601 13.9646 17.9305 13.7922C18.4141 12.6094 19.5781 11.875 20.9688 11.875C21.839 11.875 22.6736 12.2207 23.2889 12.8361C23.9043 13.4514 24.25 14.286 24.25 15.1562C24.25 17.4547 22.2328 19.6695 20.5398 21.1219Z" fill="black"/>
</g>
</svg>
