<svg width="19" height="20" viewBox="0 0 19 20" fill="none" xmlns="http://www.w3.org/2000/svg">
<path id="Vector 2" d="M1 15.5811V9.6503C1 8.22075 1 7.50597 1.30077 6.88589C1.60154 6.26581 2.16288 5.82331 3.28555 4.93831L5.25626 3.3848C7.01438 1.99887 7.89345 1.30591 8.92155 1.29847C9.94966 1.29104 10.8387 1.97122 12.6166 3.33158L14.7174 4.93887C15.873 5.82306 16.4508 6.26516 16.7611 6.8933C17.0714 7.52143 17.0714 8.24898 17.0714 9.70407V16.1582C17.0714 17.4515 16.023 18.5 14.7296 18.5C13.4363 18.5 12.3878 17.4515 12.3878 16.1582V15.5C12.3878 13.8431 11.0447 12.5 9.38783 12.5H9.00523C8.64991 12.5 8.47225 12.5 8.32263 12.515C6.90304 12.6577 5.78033 13.7804 5.63766 15.2C5.62262 15.3496 5.62262 15.5273 5.62262 15.8826V16.34C5.62262 17.5329 4.65556 18.5 3.46262 18.5H3.31131C2.03481 18.5 1 17.4652 1 16.1887V15.5811Z" stroke="black" stroke-opacity="0.56" stroke-width="2"/>
</svg>
