<svg width="25" height="24" viewBox="0 0 25 24" fill="none" xmlns="http://www.w3.org/2000/svg">
<g id="ic_eye">
<path id="Vector" d="M12.7873 4C8.4343 4 4.50892 7.005 2.78723 11.654C2.70374 11.8772 2.70374 12.1228 2.78723 12.346C4.50892 17 8.4343 20 12.7873 20C17.1404 20 21.0658 17 22.7875 12.346C22.8709 12.1228 22.8709 11.8772 22.7875 11.654C21.0658 7.005 17.1404 4 12.7873 4ZM12.7873 18C9.39225 18 6.29602 15.657 4.80979 12C6.29602 8.343 9.39225 6 12.7873 6C16.1824 6 19.2787 8.343 20.7649 12C19.2787 15.657 16.1824 18 12.7873 18Z" fill="#A6A6A6"/>
<path id="Vector_2" d="M12.7875 8C11.9914 8 11.2132 8.2346 10.5513 8.67412C9.88938 9.11365 9.37348 9.73836 9.06884 10.4693C8.7642 11.2002 8.68449 12.0044 8.83979 12.7804C8.9951 13.5563 9.37844 14.269 9.94135 14.8284C10.5043 15.3878 11.2214 15.7688 12.0022 15.9231C12.783 16.0775 13.5923 15.9983 14.3278 15.6955C15.0632 15.3928 15.6918 14.8801 16.1341 14.2223C16.5764 13.5645 16.8125 12.7911 16.8125 12C16.8125 10.9391 16.3884 9.92172 15.6336 9.17157C14.8787 8.42143 13.8549 8 12.7875 8ZM12.7875 14C12.3894 14 12.0003 13.8827 11.6694 13.6629C11.3384 13.4432 11.0805 13.1308 10.9281 12.7654C10.7758 12.3999 10.736 11.9978 10.8136 11.6098C10.8913 11.2219 11.0829 10.8655 11.3644 10.5858C11.6459 10.3061 12.0044 10.1156 12.3948 10.0384C12.7852 9.96126 13.1899 10.0009 13.5576 10.1522C13.9253 10.3036 14.2396 10.56 14.4608 10.8889C14.6819 11.2178 14.8 11.6044 14.8 12C14.8 12.5304 14.5879 13.0391 14.2105 13.4142C13.8331 13.7893 13.3212 14 12.7875 14Z" fill="#A6A6A6"/>
</g>
</svg>
