<svg width="20" height="20" viewBox="0 0 20 20" fill="none" xmlns="http://www.w3.org/2000/svg">
<g id="material-symbols:my-location-outline">
<path id="Vector" d="M9.01998 16.25V15.04C7.75951 14.8988 6.67793 14.3771 5.77524 13.4748C4.87255 12.5725 4.35081 11.4909 4.21005 10.23H3V9.01998H4.21005C4.35122 7.75951 4.87315 6.67793 5.77584 5.77524C6.67854 4.87255 7.75992 4.35081 9.01998 4.21005V3H10.23V4.21005C11.4905 4.35122 12.5721 4.87315 13.4748 5.77584C14.3775 6.67854 14.8992 7.75992 15.04 9.01998H16.25V10.23H15.04C14.8988 11.4905 14.3771 12.5721 13.4748 13.4748C12.5725 14.3775 11.4909 14.8992 10.23 15.04V16.25H9.01998ZM9.625 13.8602C10.7947 13.8602 11.793 13.4467 12.6199 12.6199C13.4467 11.793 13.8602 10.7947 13.8602 9.625C13.8602 8.45529 13.4467 7.457 12.6199 6.63014C11.793 5.80327 10.7947 5.38984 9.625 5.38984C8.45529 5.38984 7.457 5.80327 6.63014 6.63014C5.80327 7.457 5.38984 8.45529 5.38984 9.625C5.38984 10.7947 5.80327 11.793 6.63014 12.6199C7.457 13.4467 8.45529 13.8602 9.625 13.8602ZM9.625 12.0451C8.95947 12.0451 8.38974 11.8081 7.91581 11.3342C7.44188 10.8603 7.20491 10.2905 7.20491 9.625C7.20491 8.95947 7.44188 8.38974 7.91581 7.91581C8.38974 7.44188 8.95947 7.20491 9.625 7.20491C10.2905 7.20491 10.8603 7.44188 11.3342 7.91581C11.8081 8.38974 12.0451 8.95947 12.0451 9.625C12.0451 10.2905 11.8081 10.8603 11.3342 11.3342C10.8603 11.8081 10.2905 12.0451 9.625 12.0451ZM9.625 10.835C9.95776 10.835 10.2427 10.7167 10.4799 10.4799C10.7171 10.2431 10.8354 9.95817 10.835 9.625C10.835 9.29224 10.7165 9.00727 10.4793 8.7701C10.2421 8.53293 9.95736 8.41455 9.625 8.41495C9.29224 8.41495 9.00727 8.53354 8.7701 8.77071C8.53293 9.00788 8.41455 9.29264 8.41495 9.625C8.41495 9.95776 8.53354 10.2427 8.77071 10.4799C9.00788 10.7171 9.29264 10.8354 9.625 10.835Z" fill="black" fill-opacity="0.68"/>
</g>
</svg>
