<svg width="24" height="25" viewBox="0 0 24 25" fill="none" xmlns="http://www.w3.org/2000/svg">
<g id="mdi:cart-outline">
<path id="Vector" d="M17 18.75C17.5304 18.75 18.0391 18.9607 18.4142 19.3358C18.7893 19.7109 19 20.2196 19 20.75C19 21.2804 18.7893 21.7891 18.4142 22.1642C18.0391 22.5393 17.5304 22.75 17 22.75C16.4696 22.75 15.9609 22.5393 15.5858 22.1642C15.2107 21.7891 15 21.2804 15 20.75C15 19.64 15.89 18.75 17 18.75ZM1 2.75H4.27L5.21 4.75H20C20.2652 4.75 20.5196 4.85536 20.7071 5.04289C20.8946 5.23043 21 5.48478 21 5.75C21 5.92 20.95 6.09 20.88 6.25L17.3 12.72C16.96 13.33 16.3 13.75 15.55 13.75H8.1L7.2 15.38L7.17 15.5C7.17 15.5663 7.19634 15.6299 7.24322 15.6768C7.29011 15.7237 7.3537 15.75 7.42 15.75H19V17.75H7C6.46957 17.75 5.96086 17.5393 5.58579 17.1642C5.21071 16.7891 5 16.2804 5 15.75C5 15.4 5.09 15.07 5.24 14.79L6.6 12.34L3 4.75H1V2.75ZM7 18.75C7.53043 18.75 8.03914 18.9607 8.41421 19.3358C8.78929 19.7109 9 20.2196 9 20.75C9 21.2804 8.78929 21.7891 8.41421 22.1642C8.03914 22.5393 7.53043 22.75 7 22.75C6.46957 22.75 5.96086 22.5393 5.58579 22.1642C5.21071 21.7891 5 21.2804 5 20.75C5 19.64 5.89 18.75 7 18.75ZM16 11.75L18.78 6.75H6.14L8.5 11.75H16Z" fill="black" fill-opacity="0.56"/>
</g>
</svg>
