<svg width="14" height="14" viewBox="0 0 14 14" fill="none" xmlns="http://www.w3.org/2000/svg">
<g id="mdi:cart-plus">
<path id="Vector" d="M6.41671 5.25004H7.58337V3.50004H9.33337V2.33337H7.58337V0.583374H6.41671V2.33337H4.66671V3.50004H6.41671M4.08337 10.5C3.44171 10.5 2.91671 11.025 2.91671 11.6667C2.91671 12.3084 3.44171 12.8334 4.08337 12.8334C4.72504 12.8334 5.25004 12.3084 5.25004 11.6667C5.25004 11.025 4.72504 10.5 4.08337 10.5ZM9.91671 10.5C9.27504 10.5 8.75004 11.025 8.75004 11.6667C8.75004 12.3084 9.27504 12.8334 9.91671 12.8334C10.5584 12.8334 11.0834 12.3084 11.0834 11.6667C11.0834 11.025 10.5584 10.5 9.91671 10.5ZM4.20004 8.63337V8.57504L4.72504 7.58337H9.04171C9.45004 7.58337 9.85837 7.35004 10.0334 7.00004L12.3084 2.91671L11.3167 2.33337L9.04171 6.41671H4.95837L2.50837 1.16671H0.583374V2.33337H1.75004L3.85004 6.76671L3.03337 8.16671C2.97504 8.34171 2.91671 8.51671 2.91671 8.75004C2.91671 9.39171 3.44171 9.91671 4.08337 9.91671H11.0834V8.75004H4.31671C4.25837 8.75004 4.20004 8.69171 4.20004 8.63337Z" fill="black"/>
</g>
</svg>
