<svg width="25" height="25" viewBox="0 0 25 25" fill="none" xmlns="http://www.w3.org/2000/svg">
<g id="Frame 4">
<rect width="25" height="25" rx="12.5" fill="#EFEFEF"/>
<path id="Vector" fill-rule="evenodd" clip-rule="evenodd" d="M12.3333 4C16.9358 4 20.6667 7.73083 20.6667 12.3333C20.6696 14.2566 20.0045 16.1211 18.785 17.6083L18.8017 17.6267L18.6917 17.72C17.9102 18.6444 16.9363 19.3869 15.8381 19.8959C14.7399 20.4049 13.5438 20.6679 12.3333 20.6667C9.87501 20.6667 7.66668 19.6025 6.14168 17.9108L5.97501 17.7192L5.86501 17.6275L5.88168 17.6075C4.66231 16.1206 3.99719 14.2563 4.00001 12.3333C4.00001 7.73083 7.73084 4 12.3333 4ZM12.3333 16.5C10.7833 16.5 9.38251 16.9933 8.33918 17.6708C9.49108 18.5355 10.893 19.002 12.3333 19C13.7737 19.002 15.1756 18.5355 16.3275 17.6708C15.1352 16.9072 13.7492 16.5009 12.3333 16.5ZM12.3333 5.66667C11.0788 5.66663 9.84966 6.0206 8.78728 6.68788C7.72489 7.35515 6.87235 8.30866 6.32764 9.43881C5.78294 10.569 5.56818 11.8299 5.70805 13.0766C5.84792 14.3233 6.33675 15.5053 7.11834 16.4867C8.46918 15.5175 10.3125 14.8333 12.3333 14.8333C14.3542 14.8333 16.1975 15.5175 17.5483 16.4867C18.3299 15.5053 18.8188 14.3233 18.9586 13.0766C19.0985 11.8299 18.8837 10.569 18.339 9.43881C17.7943 8.30866 16.9418 7.35515 15.8794 6.68788C14.817 6.0206 13.5879 5.66663 12.3333 5.66667ZM12.3333 7.33333C13.2174 7.33333 14.0652 7.68452 14.6904 8.30964C15.3155 8.93477 15.6667 9.78261 15.6667 10.6667C15.6667 11.5507 15.3155 12.3986 14.6904 13.0237C14.0652 13.6488 13.2174 14 12.3333 14C11.4493 14 10.6014 13.6488 9.97632 13.0237C9.3512 12.3986 9.00001 11.5507 9.00001 10.6667C9.00001 9.78261 9.3512 8.93477 9.97632 8.30964C10.6014 7.68452 11.4493 7.33333 12.3333 7.33333ZM12.3333 9C11.8913 9 11.4674 9.1756 11.1548 9.48816C10.8423 9.80072 10.6667 10.2246 10.6667 10.6667C10.6667 11.1087 10.8423 11.5326 11.1548 11.8452C11.4674 12.1577 11.8913 12.3333 12.3333 12.3333C12.7754 12.3333 13.1993 12.1577 13.5119 11.8452C13.8244 11.5326 14 11.1087 14 10.6667C14 10.2246 13.8244 9.80072 13.5119 9.48816C13.1993 9.1756 12.7754 9 12.3333 9Z" fill="black" fill-opacity="0.68"/>
</g>
</svg>
