<svg width="18" height="18" viewBox="0 0 18 18" fill="none" xmlns="http://www.w3.org/2000/svg">
<g id="Wifi">
<path id="Union" fill-rule="evenodd" clip-rule="evenodd" d="M5.47415 5.23251C6.56242 4.78041 7.72948 4.54842 8.90791 4.54996L8.90895 4.54996C11.3877 4.54996 13.6296 5.55631 15.2511 7.18469C15.5628 7.49777 16.0694 7.49885 16.3824 7.18709C16.6955 6.87534 16.6966 6.3688 16.3848 6.05572C14.4754 4.13823 11.8306 2.9501 8.90947 2.94996L8.90999 2.94996L8.90895 3.74996V2.94996L8.90947 2.94996C7.51984 2.94822 6.14362 3.22181 4.86032 3.75494C3.57685 4.28814 2.41176 5.07037 1.43235 6.05644C1.12099 6.36992 1.12271 6.87645 1.43619 7.18781C1.74966 7.49917 2.25619 7.49745 2.56755 7.18397C3.398 6.34787 4.38589 5.68461 5.47415 5.23251ZM6.57205 8.02621C7.31042 7.71099 8.10511 7.54896 8.90796 7.54996H8.90995C9.71279 7.54896 10.5075 7.71099 11.2459 8.02621C11.9842 8.34144 12.6509 8.80331 13.2055 9.38383C13.5107 9.7033 14.0171 9.71487 14.3366 9.40967C14.656 9.10446 14.6676 8.59806 14.3624 8.27859C13.6582 7.54146 12.8117 6.95498 11.8741 6.55471C10.9368 6.15456 9.92806 5.94883 8.90895 5.94996L8.90995 5.94996L8.90895 6.74996L8.90796 5.94996L8.90895 5.94996C7.88984 5.94883 6.8811 6.15456 5.94383 6.55471C5.00625 6.95498 4.1597 7.54146 3.45549 8.27859C3.15029 8.59806 3.16186 9.10446 3.48133 9.40967C3.80081 9.71487 4.30721 9.7033 4.61241 9.38383C5.16699 8.80331 5.83367 8.34144 6.57205 8.02621ZM7.69076 10.8122C8.07316 10.6389 8.48822 10.5495 8.90805 10.55L8.90895 10.55C9.79318 10.55 10.586 10.9383 11.1276 11.5556C11.419 11.8877 11.9245 11.9207 12.2566 11.6293C12.5887 11.3379 12.6217 10.8325 12.3303 10.5003C11.498 9.55176 10.2735 8.95009 8.9094 8.94996L8.90985 8.94996L8.90895 9.74996V8.94996H8.9094C8.26132 8.9493 7.62061 9.08736 7.03031 9.35488C6.43988 9.62245 5.91359 10.0133 5.4868 10.5013C5.19591 10.8338 5.22969 11.3392 5.56225 11.6301C5.89481 11.921 6.40021 11.8872 6.6911 11.5547C6.96751 11.2387 7.30837 10.9855 7.69076 10.8122ZM10 13.2C10 13.7522 9.55228 14.2 9 14.2C8.44772 14.2 8 13.7522 8 13.2C8 12.6477 8.44772 12.2 9 12.2C9.55228 12.2 10 12.6477 10 13.2Z" fill="#2F2F2F"/>
</g>
</svg>
